<?xml version="1.0" encoding="utf-8"?>
<!-- Generator: Adobe Illustrator 21.0.2, SVG Export Plug-In . SVG Version: 6.00 Build 0)  -->
<svg version="1.1" id="Layer_1" xmlns="http://www.w3.org/2000/svg" xmlns:xlink="http://www.w3.org/1999/xlink" x="0px" y="0px"
	 width="12px" height="12px" viewBox="0 0 12 12" style="enable-background:new 0 0 12 12;" xml:space="preserve">
<style type="text/css">
	.st0{fill:#FFFFFF;}
</style>
<g>
	<path class="st0" d="M7.2,12h-7C0.1,12,0,11.9,0,11.7v-7c0-0.1,0.1-0.3,0.3-0.3h7c0.1,0,0.3,0.1,0.3,0.3v7C7.5,11.9,7.4,12,7.2,12z
		 M11.7,0h-7C4.6,0,4.5,0.1,4.5,0.3v3.2H6v-2h4.5V6h-2v1.5h3.2c0.1,0,0.3-0.1,0.3-0.3v-7C12,0.1,11.9,0,11.7,0z"/>
</g>
</svg>
