<svg width="32" height="32" viewBox="0 0 32 32" fill="none" xmlns="http://www.w3.org/2000/svg">
<g clip-path="url(#clip0_0_3)">
<path d="M16 32C24.8366 32 32 24.8366 32 16C32 7.16344 24.8366 0 16 0C7.16344 0 0 7.16344 0 16C0 24.8366 7.16344 32 16 32Z" fill="black"/>
<path d="M16.927 14.3515L22.5111 8H21.1879L16.3392 13.5149L12.4666 8H8L13.8562 16.3395L8 23H9.32332L14.4436 17.1761L18.5334 23H23L16.9267 14.3515H16.927ZM15.1146 16.413L14.5212 15.5825L9.80014 8.97476H11.8327L15.6426 14.3075L16.236 15.1379L21.1885 22.0696H19.156L15.1146 16.4133V16.413Z" fill="white"/>
</g>
<defs>
<clipPath id="clip0_0_3">
<rect width="32" height="32" fill="white"/>
</clipPath>
</defs>
</svg>
